<?xml version="1.0" encoding="UTF-8" standalone="no"?>
<svg
   xmlns:dc="http://purl.org/dc/elements/1.1/"
   xmlns:cc="http://creativecommons.org/ns#"
   xmlns:rdf="http://www.w3.org/1999/02/22-rdf-syntax-ns#"
   xmlns:svg="http://www.w3.org/2000/svg"
   xmlns="http://www.w3.org/2000/svg"
   xmlns:xlink="http://www.w3.org/1999/xlink"
   xmlns:sodipodi="http://sodipodi.sourceforge.net/DTD/sodipodi-0.dtd"
   xmlns:inkscape="http://www.inkscape.org/namespaces/inkscape"
   version="1.1"
   preserveAspectRatio="xMidYMid meet"
   viewBox="85.336166 8.1584238 455.44164 397.73472"
   width="446.76761"
   height="390.14105"
   id="svg3799"
   sodipodi:docname="sticker-light-social-no-website.svg"
   inkscape:version="0.92.3 (2405546, 2018-03-11)"
   inkscape:export-filename="D:\Projects\devconnect\Sticker\sticker-light-social-no-website.png"
   inkscape:export-xdpi="600"
   inkscape:export-ydpi="600">
  <metadata
     id="metadata3803">
    <rdf:RDF>
      <cc:Work
         rdf:about="">
        <dc:format>image/svg+xml</dc:format>
        <dc:type
           rdf:resource="http://purl.org/dc/dcmitype/StillImage" />
        <dc:title></dc:title>
      </cc:Work>
    </rdf:RDF>
  </metadata>
  <sodipodi:namedview
     pagecolor="#ffffff"
     bordercolor="#666666"
     borderopacity="1"
     objecttolerance="10"
     gridtolerance="10"
     guidetolerance="10"
     inkscape:pageopacity="0"
     inkscape:pageshadow="2"
     inkscape:window-width="2880"
     inkscape:window-height="1526"
     id="namedview3801"
     showgrid="false"
     inkscape:zoom="2.6242642"
     inkscape:cx="298.11191"
     inkscape:cy="188.12473"
     inkscape:window-x="2869"
     inkscape:window-y="-11"
     inkscape:window-maximized="1"
     inkscape:current-layer="svg3799"
     fit-margin-top="40"
     fit-margin-right="40"
     fit-margin-bottom="40"
     fit-margin-left="40" />
  <defs
     id="defs3763">
    <path
       d="m 227.06,87.84 h 0.41 0.4 l 0.4,0.01 h 0.39 0.38 0.38 0.37 0.36 0.35 l 0.34,0.01 h 0.34 0.32 0.32 l 0.3,0.01 h 0.3 0.28 l 0.27,0.01 h 0.26 0.25 l 0.23,0.01 h 0.23 0.2 l 0.2,0.01 h 0.18 l 0.17,0.01 h 0.15 l 0.13,0.01 h 0.12 l 0.11,0.01 h 0.09 l 0.07,0.01 h 0.05 l 1.1,0.13 0.27,81.95 -0.73,4.05 -0.11,0.63 -0.12,0.62 -0.11,0.59 -0.11,0.57 -0.1,0.55 -0.11,0.53 -0.11,0.51 -0.1,0.5 -0.11,0.48 -0.1,0.46 -0.11,0.46 -0.11,0.44 -0.11,0.42 -0.11,0.42 -0.12,0.41 -0.12,0.4 -0.12,0.39 -0.12,0.38 -0.13,0.38 -0.13,0.37 -0.14,0.37 -0.14,0.37 -0.15,0.36 -0.15,0.36 -0.16,0.37 -0.16,0.36 -0.17,0.37 -0.18,0.37 -0.19,0.37 -0.19,0.38 -0.2,0.39 -0.21,0.39 -0.22,0.4 -0.23,0.41 -0.24,0.42 -0.24,0.43 -0.26,0.45 -0.27,0.45 -0.28,0.47 -0.29,0.49 -0.34,0.56 -0.35,0.55 -0.35,0.55 -0.36,0.54 -0.37,0.54 -0.37,0.53 -0.38,0.52 -0.39,0.52 -0.39,0.51 -0.4,0.51 -0.4,0.5 -0.41,0.5 -0.42,0.49 -0.42,0.48 -0.44,0.48 -0.43,0.48 -0.44,0.47 -0.45,0.46 -0.46,0.45 -0.46,0.46 -0.47,0.44 -0.48,0.44 -0.48,0.44 -0.49,0.42 -0.49,0.43 -0.5,0.42 -0.51,0.41 -0.52,0.4 -0.52,0.41 -0.52,0.39 -0.54,0.39 -0.54,0.39 -0.55,0.37 -0.55,0.38 -0.56,0.37 -0.57,0.36 -0.57,0.36 -0.58,0.35 -0.59,0.34 -0.59,0.34 -0.13,0.08 -0.16,0.08 -0.17,0.08 -0.19,0.09 -0.21,0.1 -0.22,0.1 -0.24,0.11 -0.26,0.11 -0.26,0.11 -0.28,0.12 -0.29,0.12 -0.3,0.12 -0.31,0.13 -0.31,0.12 -0.33,0.13 -0.33,0.13 -0.33,0.13 -0.34,0.13 -0.34,0.13 -0.34,0.13 -0.34,0.12 -0.34,0.13 -0.34,0.13 -0.34,0.12 -0.33,0.12 -0.33,0.12 -0.33,0.11 -0.31,0.11 -0.31,0.11 -0.31,0.1 -0.29,0.1 -0.28,0.09 -0.27,0.09 -0.25,0.08 -0.24,0.07 -0.23,0.07 -0.21,0.06 -0.2,0.05 -0.17,0.05 -0.16,0.03 -1.51,0.31 -1.51,0.25 -1.5,0.21 -1.5,0.16 -1.49,0.11 -1.49,0.07 -1.47,0.02 -1.48,-0.03 -1.46,-0.07 -1.45,-0.12 -1.45,-0.16 -1.43,-0.21 -1.42,-0.26 -1.41,-0.3 -1.4,-0.34 -1.39,-0.39 -1.36,-0.43 -1.36,-0.47 -1.34,-0.52 -1.32,-0.55 -1.31,-0.61 -1.28,-0.64 -1.27,-0.68 -1.25,-0.73 -1.23,-0.77 -1.21,-0.8 -1.19,-0.85 -1.16,-0.89 -1.14,-0.92 -1.12,-0.97 -1.1,-1.01 -1.06,-1.04 -1.05,-1.08 -1.01,-1.12 -0.99,-1.16 -0.96,-1.2 -0.93,-1.23 -0.91,-1.27 -0.87,-1.3 -0.84,-1.35 -0.25,-0.42 -0.25,-0.41 -0.24,-0.4 -0.23,-0.4 -0.22,-0.38 -0.21,-0.37 -0.21,-0.37 -0.19,-0.36 -0.19,-0.36 -0.19,-0.35 -0.17,-0.34 -0.18,-0.34 -0.16,-0.34 -0.16,-0.34 -0.15,-0.33 -0.15,-0.33 -0.14,-0.34 -0.14,-0.33 -0.14,-0.34 -0.13,-0.34 -0.12,-0.34 -0.12,-0.34 -0.12,-0.35 -0.12,-0.35 -0.11,-0.36 -0.12,-0.37 -0.11,-0.38 -0.1,-0.38 -0.11,-0.39 -0.1,-0.4 -0.11,-0.41 -0.1,-0.43 -0.1,-0.43 -0.11,-0.45 -0.1,-0.46 -0.1,-0.48 -0.11,-0.49 -0.1,-0.5 -0.11,-0.53 -0.1,-0.53 -0.05,-0.21 -0.03,-0.2 -0.04,-0.19 -0.04,-0.19 -0.03,-0.18 -0.03,-0.17 -0.03,-0.17 -0.03,-0.16 -0.03,-0.16 -0.02,-0.16 -0.03,-0.16 -0.02,-0.16 -0.02,-0.16 -0.02,-0.16 -0.01,-0.16 -0.02,-0.16 -0.02,-0.17 -0.01,-0.18 -0.01,-0.18 -0.01,-0.18 -0.01,-0.2 -0.01,-0.2 -0.01,-0.21 -0.01,-0.22 -0.01,-0.24 v -0.24 l -0.01,-0.26 v -0.27 -0.28 l -0.01,-0.3 v -0.32 -0.33 -0.35 -0.37 -0.38 l -0.01,-0.41 v -0.43 -0.45 l 0.01,-0.48 v -0.5 -6.98 l 11.51,-0.09 11.51,-0.09 0.01,1.63 0.03,1.28 0.1,1.27 0.14,1.25 0.21,1.23 0.26,1.2 0.3,1.19 0.36,1.15 0.41,1.14 0.45,1.1 0.5,1.08 0.55,1.04 0.58,1.02 0.63,0.98 0.66,0.95 0.71,0.91 0.73,0.88 0.77,0.83 0.81,0.81 0.83,0.76 0.87,0.71 0.89,0.68 0.92,0.63 0.94,0.59 0.96,0.54 0.99,0.49 1,0.45 1.02,0.39 1.04,0.34 1.06,0.29 1.06,0.23 1.08,0.18 1.09,0.12 1.1,0.07 h 1.1 l 1.11,-0.05 1.11,-0.12 1.11,-0.18 1.11,-0.25 1.11,-0.31 1.11,-0.38 0.56,-0.22 0.55,-0.23 0.55,-0.25 0.54,-0.27 0.53,-0.29 0.54,-0.3 0.52,-0.31 0.52,-0.33 0.51,-0.35 0.51,-0.36 0.49,-0.37 0.49,-0.39 0.49,-0.4 0.47,-0.42 0.47,-0.43 0.45,-0.44 0.45,-0.45 0.44,-0.46 0.43,-0.48 0.42,-0.48 0.41,-0.5 0.4,-0.51 0.39,-0.52 0.38,-0.52 0.37,-0.54 0.35,-0.55 0.34,-0.55 0.34,-0.56 0.32,-0.57 0.3,-0.58 0.3,-0.59 0.28,-0.59 0.26,-0.6 0.26,-0.61 0.23,-0.61 0.23,-0.62 0.21,-0.62 0.19,-0.63 0.18,-0.63 0.17,-0.64 0.02,-0.09 0.02,-0.11 0.02,-0.13 0.02,-0.14 0.02,-0.17 0.02,-0.19 0.01,-0.21 0.02,-0.24 0.01,-0.28 0.01,-0.3 0.02,-0.35 0.01,-0.38 0.01,-0.42 0.01,-0.47 0.01,-0.52 0.01,-0.56 0.01,-0.62 v -0.67 l 0.01,-0.73 0.01,-0.79 v -0.85 l 0.01,-0.91 v -0.99 -1.05 l 0.01,-1.13 v -1.2 -1.28 -1.37 -1.44 -1.53 -1.62 -1.71 -1.81 -1.9 l -0.01,-2 v -2.1 -2.21 l -0.01,-2.31 v -2.43 -2.53 l -0.07,-38.39 10.67,-0.03 h 0.44 l 0.44,-0.01 h 0.43 0.43 0.43 0.42 0.42 z"
       id="b22WeHWbVv"
       inkscape:connector-curvature="0" />
    <path
       d="m 252.57,65.92 0.61,0.12 0.59,0.11 0.57,0.11 0.55,0.11 0.53,0.11 0.51,0.1 0.5,0.11 0.48,0.11 0.46,0.11 0.45,0.11 0.44,0.11 0.43,0.11 0.42,0.11 0.4,0.12 0.4,0.12 0.39,0.12 0.39,0.13 0.37,0.13 0.38,0.13 0.36,0.14 0.37,0.14 0.36,0.15 0.37,0.15 0.36,0.16 0.36,0.17 0.37,0.17 0.37,0.18 0.37,0.18 0.38,0.2 0.39,0.2 0.39,0.21 0.4,0.22 0.41,0.23 0.42,0.24 0.43,0.25 0.44,0.26 0.45,0.27 0.47,0.28 0.49,0.29 0.56,0.35 0.55,0.35 0.54,0.35 0.55,0.36 0.53,0.37 0.53,0.38 0.52,0.38 0.52,0.38 0.51,0.4 0.51,0.4 0.5,0.4 0.49,0.42 0.49,0.42 0.49,0.42 0.48,0.43 0.47,0.44 0.46,0.45 0.47,0.45 0.45,0.46 0.45,0.46 0.44,0.47 0.44,0.48 0.44,0.48 0.42,0.49 0.42,0.5 0.42,0.5 0.41,0.51 0.41,0.51 0.39,0.53 0.4,0.52 0.39,0.54 0.38,0.54 0.38,0.55 0.37,0.55 0.36,0.57 0.37,0.56 0.35,0.58 0.35,0.58 0.34,0.59 0.34,0.59 0.08,0.14 0.08,0.15 0.08,0.17 0.09,0.19 0.1,0.21 0.1,0.23 0.1,0.24 0.11,0.25 0.11,0.27 0.12,0.28 0.12,0.29 0.12,0.3 0.12,0.3 0.13,0.32 0.13,0.32 0.12,0.33 0.13,0.34 0.13,0.34 0.13,0.34 0.13,0.34 0.12,0.34 0.13,0.34 0.12,0.34 0.13,0.34 0.12,0.34 0.11,0.33 0.12,0.32 0.11,0.32 0.1,0.31 0.1,0.3 0.1,0.29 0.09,0.28 0.09,0.27 0.07,0.26 0.08,0.24 0.06,0.23 0.06,0.21 0.06,0.19 0.04,0.18 0.04,0.15 0.3,1.52 0.25,1.5 0.2,1.51 0.15,1.5 0.11,1.49 0.06,1.48 0.02,1.48 -0.03,1.48 -0.08,1.46 -0.13,1.45 -0.17,1.45 -0.21,1.43 -0.26,1.42 -0.3,1.41 -0.35,1.4 -0.39,1.38 -0.44,1.37 -0.47,1.35 -0.52,1.34 -0.57,1.32 -0.6,1.3 -0.65,1.29 -0.69,1.26 -0.73,1.25 -0.77,1.23 -0.81,1.2 -0.85,1.19 -0.89,1.16 -0.93,1.14 -0.97,1.11 -1.01,1.09 -1.05,1.07 -1.09,1.04 -1.12,1.01 -1.16,0.98 -1.2,0.96 -1.24,0.93 -1.27,0.9 -1.31,0.86 -1.34,0.84 -0.43,0.25 -0.41,0.25 -0.4,0.24 -0.39,0.22 -0.39,0.22 -0.37,0.21 -0.37,0.21 -0.36,0.19 -0.36,0.19 -0.35,0.19 -0.34,0.17 -0.35,0.17 -0.33,0.16 -0.34,0.16 -0.34,0.15 -0.33,0.15 -0.33,0.14 -0.34,0.14 -0.33,0.13 -0.34,0.13 -0.34,0.13 -0.35,0.12 -0.35,0.12 -0.35,0.11 -0.36,0.12 -0.37,0.11 -0.38,0.1 -0.38,0.11 -0.39,0.11 -0.4,0.1 -0.42,0.1 -0.42,0.1 -0.43,0.1 -0.45,0.11 -0.46,0.1 -0.48,0.1 -0.49,0.1 -0.51,0.1 -0.52,0.11 -0.54,0.1 -0.21,0.04 -0.2,0.04 -0.19,0.04 -0.18,0.03 -0.18,0.04 -0.17,0.03 -0.17,0.03 -0.17,0.03 -0.16,0.02 -0.16,0.03 -0.16,0.02 -0.15,0.02 -0.16,0.02 -0.16,0.02 -0.17,0.02 -0.16,0.01 -0.17,0.02 -0.17,0.01 -0.18,0.01 -0.19,0.01 -0.19,0.01 -0.21,0.01 -0.21,0.01 h -0.22 l -0.23,0.01 -0.25,0.01 h -0.25 -0.27 l -0.29,0.01 h -0.3 -0.31 -0.33 -0.35 -0.37 -0.39 -0.41 -0.43 l -0.45,-0.01 h -0.48 -0.49 l -6.98,-0.03 -0.06,-11.51 -0.05,-11.51 h 1.63 l 1.28,-0.03 1.27,-0.09 1.25,-0.14 1.23,-0.2 1.21,-0.26 1.18,-0.3 1.16,-0.36 1.13,-0.4 1.11,-0.45 1.07,-0.5 1.05,-0.54 1.02,-0.58 0.98,-0.62 0.95,-0.66 0.92,-0.7 0.88,-0.74 0.84,-0.76 0.8,-0.81 0.77,-0.83 0.72,-0.86 0.68,-0.89 0.63,-0.91 0.59,-0.94 0.55,-0.97 0.49,-0.98 0.45,-1 0.39,-1.02 0.35,-1.04 0.29,-1.05 0.24,-1.07 0.18,-1.08 0.13,-1.09 0.06,-1.09 0.01,-1.1 -0.05,-1.11 -0.12,-1.11 -0.17,-1.12 -0.25,-1.11 -0.3,-1.11 -0.38,-1.11 -0.21,-0.56 -0.24,-0.55 -0.25,-0.55 -0.26,-0.54 -0.29,-0.54 -0.29,-0.53 -0.32,-0.53 -0.33,-0.52 -0.34,-0.51 -0.36,-0.5 -0.37,-0.5 -0.39,-0.5 -0.4,-0.48 -0.41,-0.48 -0.43,-0.46 -0.44,-0.46 -0.45,-0.45 -0.46,-0.44 -0.47,-0.43 -0.49,-0.43 -0.49,-0.41 -0.51,-0.4 -0.52,-0.39 -0.52,-0.38 -0.54,-0.37 -0.54,-0.36 -0.56,-0.34 -0.56,-0.33 -0.57,-0.33 -0.58,-0.3 -0.58,-0.3 -0.59,-0.28 -0.6,-0.27 -0.61,-0.26 -0.61,-0.24 -0.61,-0.22 -0.63,-0.21 -0.62,-0.2 -0.64,-0.18 -0.63,-0.17 -0.1,-0.02 -0.11,-0.02 -0.12,-0.02 -0.15,-0.02 -0.16,-0.02 -0.19,-0.02 -0.21,-0.02 -0.25,-0.01 -0.27,-0.02 -0.31,-0.01 -0.34,-0.02 -0.38,-0.01 -0.43,-0.01 -0.47,-0.01 -0.51,-0.02 -0.57,-0.01 -0.61,-0.01 -0.67,-0.01 h -0.73 l -0.79,-0.01 -0.85,-0.01 -0.92,-0.01 -0.98,-0.01 h -1.06 l -1.12,-0.01 -1.21,-0.01 h -1.28 l -1.36,-0.01 h -1.44 l -1.54,-0.01 h -1.62 l -1.71,-0.01 h -1.8 l -1.9,-0.01 h -2.01 -2.1 l -2.2,-0.01 h -2.32 l -2.42,-0.01 h -2.54 L 165.67,88.6 V 77.92 77.49 77.05 76.62 76.18 75.76 75.34 74.92 l 0.01,-0.42 V 74.1 73.69 73.3 72.91 l 0.01,-0.39 v -0.37 -0.37 l 0.01,-0.36 v -0.35 -0.35 l 0.01,-0.33 v -0.32 -0.32 l 0.01,-0.3 v -0.3 -0.28 l 0.01,-0.27 v -0.26 l 0.01,-0.25 v -0.24 l 0.01,-0.22 v -0.21 l 0.01,-0.19 v -0.18 l 0.01,-0.17 v -0.15 l 0.01,-0.13 v -0.13 l 0.01,-0.1 v -0.09 l 0.01,-0.07 v -0.05 l 0.13,-1.1 h 81.95 l 4.05,0.74 z"
       id="b2aaA8IxrE"
       inkscape:connector-curvature="0" />
    <path
       d="m 192.12,9.26 1.46,0.12 1.44,0.16 1.43,0.21 1.43,0.26 1.41,0.29 1.39,0.35 1.39,0.38 1.37,0.43 1.35,0.48 1.34,0.51 1.32,0.56 1.31,0.6 1.29,0.65 1.26,0.68 1.25,0.73 1.23,0.76 1.21,0.81 1.19,0.85 1.16,0.89 1.15,0.92 1.11,0.97 1.1,1 1.07,1.05 1.04,1.08 1.01,1.12 0.99,1.16 0.96,1.2 0.94,1.23 0.9,1.27 0.87,1.3 0.84,1.34 0.26,0.43 0.24,0.41 0.24,0.4 0.23,0.39 0.22,0.39 0.21,0.37 0.21,0.37 0.2,0.36 0.19,0.36 0.18,0.34 0.18,0.35 0.17,0.34 0.16,0.34 0.16,0.33 0.15,0.34 0.15,0.33 0.15,0.34 0.13,0.33 0.14,0.34 0.13,0.33 0.12,0.34 0.13,0.35 0.12,0.35 0.11,0.35 0.12,0.36 0.11,0.37 0.11,0.37 0.1,0.39 0.11,0.39 0.11,0.4 0.1,0.41 0.1,0.43 0.11,0.43 0.1,0.45 0.1,0.46 0.1,0.47 0.11,0.5 0.1,0.5 0.11,0.52 0.11,0.54 0.04,0.21 0.04,0.2 0.03,0.19 0.04,0.19 0.03,0.18 0.03,0.17 0.03,0.17 0.03,0.16 0.03,0.16 0.02,0.16 0.03,0.16 0.02,0.16 0.02,0.16 0.02,0.16 0.02,0.16 0.01,0.16 0.02,0.17 0.01,0.18 0.01,0.18 0.02,0.18 0.01,0.2 0.01,0.2 v 0.21 l 0.01,0.22 0.01,0.23 v 0.25 l 0.01,0.25 v 0.27 l 0.01,0.29 v 0.3 0.31 0.34 l 0.01,0.35 v 0.37 0.38 0.41 0.43 0.45 0.48 0.5 l -0.01,6.98 -11.51,0.09 -11.51,0.09 -0.01,-1.63 -0.03,-1.29 -0.09,-1.26 -0.15,-1.25 -0.21,-1.23 -0.25,-1.21 -0.31,-1.18 -0.36,-1.16 -0.41,-1.13 -0.45,-1.1 -0.5,-1.08 -0.55,-1.04 -0.58,-1.02 -0.63,-0.98 -0.66,-0.95 -0.7,-0.91 -0.74,-0.88 -0.77,-0.84 -0.81,-0.8 -0.83,-0.76 -0.86,-0.72 -0.9,-0.67 -0.91,-0.63 -0.95,-0.59 -0.96,-0.54 -0.98,-0.49 -1.01,-0.45 -1.02,-0.39 -1.04,-0.34 -1.05,-0.29 -1.07,-0.24 -1.08,-0.17 -1.09,-0.13 -1.09,-0.06 h -1.11 l -1.1,0.05 -1.11,0.12 -1.12,0.18 -1.11,0.25 -1.11,0.31 -1.11,0.38 -0.55,0.22 -0.56,0.23 -0.54,0.25 -0.55,0.27 -0.53,0.29 -0.53,0.3 -0.53,0.31 -0.52,0.33 -0.51,0.35 -0.5,0.36 -0.5,0.37 -0.49,0.39 -0.48,0.4 -0.48,0.42 -0.46,0.42 -0.46,0.44 -0.45,0.46 -0.44,0.46 -0.43,0.48 -0.42,0.48 -0.41,0.5 -0.4,0.51 -0.39,0.51 -0.38,0.53 -0.36,0.54 -0.36,0.54 -0.34,0.56 -0.33,0.56 -0.32,0.57 -0.31,0.58 -0.29,0.59 -0.28,0.59 -0.27,0.6 -0.25,0.61 -0.24,0.61 -0.23,0.61 -0.21,0.63 -0.19,0.63 -0.18,0.63 -0.17,0.63 -0.02,0.1 -0.02,0.11 -0.02,0.13 -0.02,0.14 -0.02,0.17 -0.01,0.18 -0.02,0.22 -0.01,0.24 -0.02,0.27 -0.01,0.31 -0.02,0.34 -0.01,0.39 -0.01,0.42 -0.01,0.47 -0.01,0.52 -0.01,0.56 v 0.62 l -0.01,0.67 -0.01,0.73 v 0.79 l -0.01,0.85 v 0.91 l -0.01,0.99 v 1.05 1.13 l -0.01,1.2 v 1.28 1.36 1.45 1.53 1.62 1.71 1.81 l 0.01,1.9 v 2 2.1 2.21 l 0.01,2.31 v 2.43 l 0.01,2.53 0.06,38.39 -10.67,0.03 h -0.44 -0.44 -0.43 -0.43 l -0.43,0.01 h -0.42 -0.42 -0.41 l -0.41,-0.01 h -0.4 -0.4 -0.39 -0.38 -0.38 -0.37 -0.36 l -0.35,-0.01 h -0.34 -0.34 -0.32 l -0.32,-0.01 h -0.3 -0.29 -0.29 l -0.27,-0.01 h -0.26 -0.25 l -0.23,-0.01 h -0.22 l -0.21,-0.01 h -0.2 -0.18 L 144.18,136 h -0.16 l -0.13,-0.01 h -0.12 l -0.11,-0.01 h -0.08 l -0.08,-0.01 h -0.05 l -1.09,-0.13 -0.28,-81.95 0.73,-4.05 0.12,-0.63 0.11,-0.62 0.11,-0.59 0.11,-0.57 0.11,-0.55 0.1,-0.53 0.11,-0.51 0.1,-0.5 0.11,-0.48 0.11,-0.47 0.1,-0.45 0.11,-0.44 0.11,-0.42 0.12,-0.42 0.11,-0.41 0.12,-0.4 0.12,-0.39 0.12,-0.38 0.13,-0.38 0.13,-0.37 0.14,-0.37 0.14,-0.37 0.15,-0.36 0.15,-0.37 0.16,-0.36 0.16,-0.37 0.18,-0.36 0.17,-0.37 0.19,-0.38 0.19,-0.38 0.2,-0.38 0.21,-0.39 0.22,-0.4 0.23,-0.41 0.24,-0.42 0.25,-0.43 0.25,-0.45 0.27,-0.45 0.28,-0.47 0.29,-0.49 0.34,-0.56 0.35,-0.55 0.36,-0.55 0.36,-0.54 0.36,-0.54 0.37,-0.53 0.38,-0.52 0.39,-0.52 0.39,-0.51 0.4,-0.51 0.4,-0.5 0.42,-0.5 0.41,-0.49 0.43,-0.49 0.43,-0.48 0.43,-0.47 0.45,-0.47 0.45,-0.46 0.45,-0.46 0.46,-0.45 0.47,-0.44 0.48,-0.44 0.48,-0.44 0.49,-0.43 0.49,-0.42 0.51,-0.42 0.5,-0.41 0.52,-0.41 0.52,-0.4 0.53,-0.39 0.53,-0.39 0.54,-0.39 0.55,-0.38 0.55,-0.37 0.56,-0.37 0.57,-0.36 0.57,-0.36 0.58,-0.35 0.59,-0.35 0.59,-0.34 0.14,-0.07 0.15,-0.08 0.17,-0.08 0.19,-0.1 0.21,-0.09 0.23,-0.1 0.23,-0.11 0.26,-0.11 0.26,-0.11 0.28,-0.12 0.29,-0.12 0.3,-0.12 0.31,-0.13 0.32,-0.12 0.32,-0.13 0.33,-0.13 0.33,-0.13 0.34,-0.13 0.34,-0.13 0.34,-0.13 0.34,-0.13 0.34,-0.12 0.34,-0.13 0.34,-0.12 0.34,-0.12 0.33,-0.12 0.32,-0.11 0.32,-0.11 0.31,-0.11 0.3,-0.1 0.29,-0.1 0.28,-0.09 0.27,-0.09 0.25,-0.08 0.25,-0.07 0.22,-0.07 0.21,-0.06 0.2,-0.05 0.17,-0.05 0.16,-0.03 1.51,-0.31 1.51,-0.25 1.5,-0.21 1.5,-0.16 1.49,-0.12 1.49,-0.06 1.48,-0.02 1.47,0.03 z"
       id="camVa6HLh"
       inkscape:connector-curvature="0" />
    <path
       d="m 133.16,65.06 0.4,0.01 h 0.43 0.46 0.47 0.5 l 6.98,0.03 0.05,11.51 0.06,11.51 h -1.63 l -1.29,0.03 -1.27,0.09 -1.25,0.15 -1.23,0.2 -1.2,0.25 -1.19,0.3 -1.15,0.36 -1.14,0.4 -1.1,0.45 -1.08,0.5 -1.05,0.54 -1.01,0.58 -0.99,0.62 -0.95,0.67 -0.91,0.7 -0.88,0.73 -0.85,0.77 -0.8,0.8 -0.76,0.83 -0.72,0.86 -0.68,0.89 -0.64,0.92 -0.59,0.94 -0.54,0.96 -0.5,0.98 -0.44,1.01 -0.4,1.02 -0.35,1.04 -0.29,1.05 -0.23,1.06 -0.19,1.08 -0.12,1.09 -0.07,1.09 -0.01,1.11 0.06,1.11 0.11,1.11 0.18,1.11 0.24,1.11 0.31,1.11 0.37,1.11 0.22,0.56 0.23,0.55 0.25,0.55 0.27,0.55 0.28,0.53 0.3,0.53 0.31,0.53 0.33,0.52 0.35,0.51 0.35,0.51 0.38,0.5 0.38,0.49 0.4,0.48 0.42,0.48 0.42,0.47 0.44,0.46 0.45,0.45 0.46,0.44 0.48,0.43 0.48,0.42 0.5,0.41 0.5,0.4 0.52,0.39 0.53,0.38 0.53,0.37 0.55,0.36 0.55,0.34 0.56,0.34 0.57,0.32 0.58,0.31 0.58,0.29 0.6,0.29 0.6,0.26 0.6,0.26 0.61,0.24 0.62,0.23 0.62,0.21 0.63,0.2 0.63,0.18 0.64,0.16 0.09,0.03 0.11,0.02 0.13,0.02 0.14,0.02 0.17,0.02 0.19,0.01 0.21,0.02 0.24,0.02 0.27,0.01 0.31,0.02 0.35,0.01 0.38,0.01 0.42,0.02 0.47,0.01 0.52,0.01 0.56,0.01 0.62,0.01 0.67,0.01 0.73,0.01 0.79,0.01 0.85,0.01 h 0.91 l 0.99,0.01 1.05,0.01 h 1.13 l 1.2,0.01 h 1.28 l 1.36,0.01 1.45,0.01 h 1.53 l 1.62,0.01 h 1.71 1.81 l 1.9,0.01 h 2 l 2.1,0.01 h 2.21 l 2.31,0.01 h 2.43 2.53 l 38.39,0.07 v 10.67 0.44 l -0.01,0.43 v 0.44 0.43 0.43 0.42 0.42 0.41 0.41 l -0.01,0.4 v 0.4 0.39 0.38 l -0.01,0.38 v 0.36 0.36 0.36 l -0.01,0.34 v 0.33 0.33 l -0.01,0.31 v 0.31 l -0.01,0.29 v 0.29 0.27 l -0.01,0.26 v 0.24 l -0.01,0.24 v 0.22 l -0.01,0.21 v 0.19 l -0.01,0.19 v 0.16 l -0.01,0.15 v 0.14 l -0.01,0.12 v 0.1 l -0.01,0.09 v 0.07 l -0.01,0.06 -0.13,1.09 h -81.95 l -4.05,-0.74 -0.63,-0.12 -0.61,-0.11 -0.59,-0.11 -0.57,-0.11 -0.55,-0.11 -0.53,-0.11 -0.52,-0.11 -0.49,-0.11 -0.48,-0.11 -0.47,-0.1 -0.45,-0.11 -0.44,-0.11 -0.43,-0.12 -0.41,-0.11 -0.41,-0.12 -0.4,-0.11 -0.39,-0.13 -0.38,-0.12 -0.38,-0.13 -0.37,-0.13 -0.37,-0.14 -0.37,-0.15 -0.36,-0.14 -0.36,-0.16 -0.37,-0.16 -0.36,-0.16 -0.37,-0.17 -0.37,-0.18 -0.37,-0.19 -0.38,-0.2 -0.38,-0.2 -0.4,-0.21 -0.4,-0.22 -0.4,-0.23 -0.42,-0.24 -0.43,-0.25 -0.45,-0.26 -0.45,-0.27 -0.47,-0.28 -0.48,-0.29 -0.56,-0.34 -0.55,-0.35 -0.55,-0.36 -0.54,-0.36 -0.54,-0.37 -0.53,-0.37 -0.52,-0.38 -0.52,-0.39 -0.51,-0.39 -0.51,-0.4 -0.5,-0.41 -0.49,-0.41 -0.49,-0.42 -0.48,-0.43 -0.48,-0.43 -0.47,-0.44 -0.47,-0.44 -0.46,-0.45 -0.46,-0.46 -0.45,-0.47 -0.44,-0.47 -0.44,-0.47 -0.43,-0.49 -0.43,-0.49 -0.42,-0.49 -0.42,-0.5 -0.41,-0.51 -0.4,-0.52 -0.4,-0.52 -0.39,-0.53 -0.39,-0.54 -0.39,-0.54 -0.37,-0.55 -0.37,-0.55 -0.37,-0.56 -0.36,-0.57 -0.36,-0.58 -0.35,-0.58 -0.34,-0.58 -0.34,-0.6 -0.07,-0.13 -0.08,-0.16 -0.09,-0.17 -0.09,-0.19 -0.09,-0.21 -0.1,-0.22 -0.11,-0.24 -0.11,-0.26 -0.11,-0.26 -0.12,-0.28 -0.11,-0.29 -0.13,-0.3 -0.12,-0.31 -0.13,-0.32 -0.12,-0.32 -0.13,-0.33 -0.13,-0.33 -0.13,-0.34 -0.13,-0.34 -0.12,-0.34 -0.13,-0.35 -0.13,-0.34 -0.12,-0.34 -0.12,-0.34 -0.12,-0.33 -0.12,-0.33 -0.11,-0.33 -0.11,-0.31 -0.11,-0.31 -0.1,-0.31 -0.09,-0.29 -0.1,-0.28 -0.08,-0.27 -0.08,-0.25 -0.07,-0.24 -0.07,-0.23 -0.06,-0.21 -0.05,-0.2 -0.05,-0.17 -0.03,-0.16 -0.3,-1.51 -0.25,-1.51 -0.21,-1.5 -0.15,-1.5 -0.11,-1.49 -0.06,-1.49 -0.01,-1.48 0.03,-1.47 0.08,-1.46 0.12,-1.46 0.17,-1.44 0.21,-1.43 0.26,-1.43 0.31,-1.41 0.34,-1.39 0.39,-1.38 0.44,-1.37 0.48,-1.36 0.52,-1.33 0.56,-1.32 0.61,-1.31 0.64,-1.28 0.69,-1.27 0.73,-1.25 0.77,-1.22 0.81,-1.21 0.86,-1.18 0.89,-1.16 0.93,-1.14 0.97,-1.12 1.01,-1.09 1.04,-1.06 1.09,-1.04 1.12,-1.01 1.17,-0.99 1.19,-0.96 1.24,-0.92 1.27,-0.9 1.31,-0.87 1.35,-0.84 0.42,-0.25 0.41,-0.24 0.41,-0.24 0.39,-0.23 0.38,-0.22 0.38,-0.21 0.37,-0.2 0.36,-0.2 0.35,-0.19 0.35,-0.18 0.35,-0.18 0.34,-0.17 0.34,-0.16 0.33,-0.16 0.34,-0.15 0.33,-0.15 0.34,-0.14 0.33,-0.14 0.34,-0.13 0.34,-0.13 0.34,-0.12 0.34,-0.13 0.35,-0.11 0.36,-0.12 0.36,-0.11 0.37,-0.11 0.37,-0.11 0.38,-0.11 0.4,-0.1 0.4,-0.1 0.41,-0.11 0.42,-0.1 0.44,-0.1 0.45,-0.1 0.46,-0.1 0.47,-0.1 0.49,-0.11 0.51,-0.1 0.52,-0.1 0.54,-0.11 0.21,-0.04 0.2,-0.04 0.19,-0.04 0.19,-0.03 0.18,-0.03 0.17,-0.03 0.17,-0.03 0.16,-0.03 0.16,-0.03 0.16,-0.02 0.16,-0.02 0.16,-0.03 0.16,-0.02 0.16,-0.01 0.16,-0.02 0.16,-0.02 0.17,-0.01 0.18,-0.01 0.18,-0.02 0.18,-0.01 0.2,-0.01 0.2,-0.01 h 0.21 l 0.22,-0.01 0.24,-0.01 h 0.24 l 0.26,-0.01 h 0.27 0.28 0.3 l 0.32,-0.01 h 0.33 0.35 0.37 z"
       id="edZBu33Lq"
       inkscape:connector-curvature="0" />
  </defs>
  <g
     id="g3797"
     transform="matrix(0.78683081,0.78414458,-0.78683081,0.78414458,247.38846,-90.995827)"
     inkscape:export-xdpi="600"
     inkscape:export-ydpi="600">
    <g
       id="g3771">
      <use
         xlink:href="#b22WeHWbVv"
         id="use3765"
         style="opacity:1;fill:#14cdd7;fill-opacity:1"
         x="0"
         y="0"
         width="100%"
         height="100%" />
      <g
         id="g3769">
        <use
           xlink:href="#b22WeHWbVv"
           id="use3767"
           style="opacity:1;fill-opacity:0;stroke:#000000;stroke-width:1;stroke-opacity:0"
           x="0"
           y="0"
           width="100%"
           height="100%" />
      </g>
    </g>
    <g
       id="g3779">
      <use
         xlink:href="#b2aaA8IxrE"
         id="use3773"
         style="opacity:1;fill:#125b79;fill-opacity:1"
         x="0"
         y="0"
         width="100%"
         height="100%" />
      <g
         id="g3777">
        <use
           xlink:href="#b2aaA8IxrE"
           id="use3775"
           style="opacity:1;fill-opacity:0;stroke:#000000;stroke-width:1;stroke-opacity:0"
           x="0"
           y="0"
           width="100%"
           height="100%" />
      </g>
    </g>
    <g
       id="g3787">
      <use
         xlink:href="#camVa6HLh"
         id="use3781"
         style="opacity:1;fill:#14cdd7;fill-opacity:1"
         x="0"
         y="0"
         width="100%"
         height="100%" />
      <g
         id="g3785">
        <use
           xlink:href="#camVa6HLh"
           id="use3783"
           style="opacity:1;fill-opacity:0;stroke:#000000;stroke-width:1;stroke-opacity:0"
           x="0"
           y="0"
           width="100%"
           height="100%" />
      </g>
    </g>
    <g
       id="g3795">
      <use
         xlink:href="#edZBu33Lq"
         id="use3789"
         style="opacity:1;fill:#125b79;fill-opacity:1"
         x="0"
         y="0"
         width="100%"
         height="100%" />
      <g
         id="g3793">
        <use
           xlink:href="#edZBu33Lq"
           id="use3791"
           style="opacity:1;fill-opacity:0;stroke:#000000;stroke-width:1;stroke-opacity:0"
           x="0"
           y="0"
           width="100%"
           height="100%" />
      </g>
    </g>
  </g>
  <text
     xml:space="preserve"
     style="font-style:normal;font-weight:normal;font-size:36.70070267px;line-height:1.25;font-family:sans-serif;letter-spacing:0px;word-spacing:0px;fill:#14cdd7;fill-opacity:1;stroke:none;stroke-width:0.91751748;"
     x="148.25697"
     y="316.06543"
     id="text3807"
     inkscape:export-xdpi="600"
     inkscape:export-ydpi="600"><tspan
       sodipodi:role="line"
       id="tspan3805"
       x="148.25697"
       y="316.06543"
       style="font-style:normal;font-variant:normal;font-weight:normal;font-stretch:normal;font-size:68.50797272px;font-family:Minimo;-inkscape-font-specification:Minimo;fill:#14cdd7;fill-opacity:1;stroke-width:0.91751748;">devconnect</tspan></text>
  <g
     id="g953"
     transform="translate(22.94492,-77.194156)"
     style="fill:#14cdd7;fill-opacity:1"
     inkscape:export-xdpi="600"
     inkscape:export-ydpi="600">
    <g
       id="g958"
       transform="translate(15.539044)"
       style="fill:#14cdd7;fill-opacity:1">
      <text
         xml:space="preserve"
         style="font-style:normal;font-weight:normal;font-size:36.70070267px;line-height:1.25;font-family:sans-serif;letter-spacing:0px;word-spacing:0px;fill:#14cdd7;fill-opacity:1;stroke:none;stroke-width:0.91751748"
         x="123.52207"
         y="436.96848"
         id="text3807-5"><tspan
           sodipodi:role="line"
           id="tspan3805-0"
           x="123.52207"
           y="436.96848"
           style="font-style:normal;font-variant:normal;font-weight:normal;font-stretch:normal;font-size:21.74856377px;font-family:Minimo;-inkscape-font-specification:Minimo;letter-spacing:-0.01019464px;fill:#14cdd7;fill-opacity:1;stroke-width:0.91751748">devconnectHH</tspan></text>
      <path
         id="path923"
         d="m 121.80364,423.1978 q -1.10655,1.61851 -2.6755,2.75806 0.0166,0.23122 0.0166,0.69365 0,2.14698 -0.62759,4.28572 -0.62757,2.13873 -1.90751,4.10405 -1.27993,1.96533 -3.04708,3.47648 -1.76714,1.51115 -4.26096,2.41123 -2.49381,0.90009 -5.33444,0.90009 -4.47564,0 -8.191596,-2.39472 0.578043,0.0661 1.288206,0.0661 3.71594,0 6.62264,-2.27912 -1.73411,-0.033 -3.10489,-1.06524 -1.370764,-1.03221 -1.882747,-2.63419 0.545013,0.0826 1.007442,0.0826 0.710165,0 1.403795,-0.18167 -1.849718,-0.37985 -3.063584,-1.84146 -1.213884,-1.4616 -1.213884,-3.3939 v -0.0661 q 1.123056,0.62758 2.411244,0.67714 -1.090017,-0.72668 -1.734111,-1.89927 -0.644094,-1.17259 -0.644094,-2.54336 0,-1.45335 0.72666,-2.692 1.998369,2.46078 4.863769,3.93891 2.86541,1.47811 6.13544,1.64327 -0.13211,-0.62759 -0.13211,-1.22213 0,-2.21305 1.56069,-3.77375 1.56069,-1.5607 3.77374,-1.5607 2.31215,0 3.89763,1.68457 1.80017,-0.34683 3.38563,-1.2882 -0.61106,1.89926 -2.34517,2.93973 1.53592,-0.16516 3.07185,-0.82577 z"
         inkscape:connector-curvature="0"
         style="fill:#14cdd7;fill-opacity:1;stroke-width:0.01651531" />
    </g>
  </g>
  <g
     id="g948"
     transform="translate(123.95327,-107.10682)"
     style="fill:#14cdd7;fill-opacity:1"
     inkscape:export-xdpi="600"
     inkscape:export-ydpi="600">
    <text
       id="text3807-5-7-5"
       y="466.52542"
       x="225.93073"
       style="font-style:normal;font-weight:normal;font-size:36.70070267px;line-height:1.25;font-family:sans-serif;letter-spacing:0px;word-spacing:0px;fill:#14cdd7;fill-opacity:1;stroke:none;stroke-width:0.91751748"
       xml:space="preserve"><tspan
         style="font-style:normal;font-variant:normal;font-weight:normal;font-stretch:normal;font-size:21.74856377px;font-family:Minimo;-inkscape-font-specification:Minimo;letter-spacing:-0.01019464px;fill:#14cdd7;fill-opacity:1;stroke-width:0.91751748"
         y="466.52542"
         x="225.93073"
         id="tspan3805-0-8-2"
         sodipodi:role="line">devconnect HH</tspan></text>
    <path
       style="fill:#14cdd7;fill-opacity:1;stroke-width:0.01468028"
       inkscape:connector-curvature="0"
       d="m 215.32772,465.97222 q -0.0588,-0.35232 -0.4037,-0.49913 -0.345,-0.14679 -0.72669,-0.15414 -0.38168,-0.007 -0.71199,-0.18349 -0.3303,-0.17617 -0.37434,-0.55785 -0.0734,-0.68998 0.48445,-2.0479 0.55786,-1.35794 1.10102,-2.65714 0.54317,-1.29921 0.46977,-1.87173 -0.20553,-1.48272 -1.71759,-1.51207 -0.66061,-0.0146 -1.10102,0.23488 l -0.044,0.0294 -0.0734,0.0367 -0.0661,0.0294 -0.0734,0.0294 -0.0734,0.007 -0.0881,-0.0221 -0.0881,-0.0514 -0.0955,-0.0734 q -0.044,-0.0294 -0.13205,-0.12484 -0.0881,-0.0955 -0.13219,-0.13205 -0.044,-0.0367 -0.1247,-0.11016 -0.0808,-0.0734 -0.13954,-0.11016 -0.0588,-0.0367 -0.13954,-0.0808 -0.0808,-0.044 -0.16148,-0.0661 -0.0808,-0.0221 -0.16883,-0.0367 -0.44041,-0.0734 -0.70465,0.044 -0.26424,0.11748 -0.66061,0.45509 -0.0146,0.0146 -0.13205,0.12484 -0.11748,0.11016 -0.18349,0.16148 -0.0661,0.0514 -0.22021,0.1468 -0.15416,0.0955 -0.24222,0.0808 -0.0881,-0.0146 -0.24957,-0.044 -0.79273,-0.39636 -1.23314,-0.58719 -0.6019,-0.26425 -1.37995,0.0734 -0.77807,0.33764 -1.1157,0.95421 -0.23489,0.41105 -0.6019,1.446 -0.36701,1.03498 -0.63859,1.94514 -0.27159,0.91018 -0.58721,1.96718 -0.31562,1.05697 -0.31562,1.07164 -0.32297,1.01294 0.27158,1.74696 0.59454,0.73402 1.62217,0.67529 0.44041,-0.0294 0.74135,-0.2202 0.30095,-0.19085 0.56519,-0.67529 0.10284,-0.19084 1.15975,-2.92872 1.05697,-2.73787 1.13039,-2.85531 0.0881,-0.16149 0.31561,-0.26424 0.22756,-0.10284 0.43307,0 0.39637,0.2202 0.30829,0.77804 -0.0294,0.26424 -0.7487,2.0479 -0.71932,1.78365 -0.73401,1.94514 -0.0881,0.55785 0.28627,0.82944 0.37434,0.27158 0.88815,0.10284 0.51381,-0.16883 0.80742,-0.72667 0.0588,-0.11748 0.66794,-1.35059 0.60924,-1.23315 1.19646,-2.40022 0.5872,-1.16709 0.67529,-1.29921 0.29359,-0.42573 0.60188,-0.41105 0.42574,0 0.36702,0.55785 -0.0294,0.23488 -0.96156,2.16534 -0.9322,1.93046 -1.03496,2.3415 -0.17617,0.77807 0.19085,1.51208 0.36699,0.73401 1.08633,1.08633 0.24957,0.13219 0.7487,0.22756 0.49912,0.0955 1.04964,0.11748 0.55051,0.0221 0.91752,-0.20554 0.36699,-0.22753 0.2936,-0.71199 z m -13.96094,3.17094 q 0.044,0.22021 -0.0734,0.40371 -0.11748,0.18351 -0.33766,0.22755 -0.20552,0.044 -0.38903,-0.0734 -0.18349,-0.11748 -0.22754,-0.33765 -0.044,-0.20552 0.0734,-0.39636 0.11736,-0.19085 0.32296,-0.23489 0.20552,-0.044 0.39636,0.0734 0.19084,0.11736 0.2349,0.33763 z m 8.36775,3.86092 q 0.17618,0.24956 0.12485,0.55051 -0.0514,0.30095 -0.30095,0.47712 -0.24956,0.17615 -0.55051,0.11736 -0.30095,-0.0588 -0.47712,-0.30828 -0.16147,-0.24956 -0.11016,-0.55051 0.0514,-0.30095 0.30095,-0.47712 0.24956,-0.17615 0.55051,-0.11748 0.30095,0.0588 0.46243,0.30829 z m -11.3919,-11.92038 q -0.26424,0.39636 -0.72667,0.48445 -0.46242,0.0881 -0.8441,-0.19085 -0.3817,-0.26425 -0.46978,-0.73401 -0.0881,-0.46977 0.17616,-0.85145 0.26425,-0.39639 0.72667,-0.48447 0.46244,-0.0881 0.84412,0.17618 0.38168,0.27892 0.46978,0.74134 0.0881,0.46244 -0.17618,0.85881 z m 18.93758,9.93855 q 0.27891,0.41105 0.19083,0.90284 -0.0881,0.49178 -0.49913,0.7707 -0.41104,0.27892 -0.88816,0.19086 -0.4771,-0.0881 -0.75603,-0.49913 -0.27893,-0.41105 -0.19085,-0.89551 0.0881,-0.48444 0.48446,-0.77805 0.41104,-0.27893 0.88815,-0.19085 0.47711,0.0881 0.77073,0.49914 z m 1.64419,-8.8669 q 1.01293,1.65888 0.6239,3.58933 -0.38903,1.93046 -1.97449,3.04616 -1.32124,0.92485 -2.92138,0.88081 -0.29361,1.17443 -1.24048,1.86441 -0.94688,0.68997 -2.10663,0.65327 -1.15974,-0.0367 -2.05524,-0.84412 -0.17616,0.13219 -0.19083,0.1468 -1.51208,1.04229 -3.30306,0.71199 -1.791,-0.3303 -2.8333,-1.85706 -0.73402,-1.07166 -0.77807,-2.40756 -1.21845,-0.20551 -2.09192,-1.03495 -0.87348,-0.82944 -1.18177,-1.87908 -0.3083,-1.04964 -0.0294,-2.2314 0.27892,-1.18177 1.18911,-2.03323 -0.5285,-0.88081 -0.55785,-1.87907 -0.0294,-0.99827 0.35966,-1.83503 0.38903,-0.83677 1.16707,-1.44601 0.77807,-0.60923 1.77631,-0.74135 0.46978,-1.24783 1.45336,-2.17269 0.98358,-0.92486 2.15066,-1.34325 1.16709,-0.41838 2.46629,-0.24956 1.29921,0.16883 2.3415,0.97625 1.05699,-0.3083 2.05524,-0.25691 0.99827,0.0514 1.88641,0.52849 0.88817,0.4771 1.5341,1.17442 0.64593,0.6973 0.99092,1.68823 0.34498,0.99092 0.25691,2.06258 0.76337,0.23488 1.27718,0.83677 0.51381,0.60189 0.66796,1.30655 0.15414,0.70465 -0.0808,1.46069 -0.23488,0.75604 -0.85145,1.28452 z m -16.50065,-9.68898 q 0.20554,0.29361 0.13939,0.65326 -0.0661,0.35968 -0.35966,0.5652 -0.27893,0.20553 -0.63858,0.13954 -0.35968,-0.0661 -0.55051,-0.35966 -0.20554,-0.29362 -0.13954,-0.65327 0.0661,-0.35968 0.35966,-0.5652 0.27892,-0.20553 0.63858,-0.13954 0.35968,0.0661 0.55052,0.35967 z m 2.33417,-4.12516 q 0.0588,0.23488 -0.0734,0.44776 -0.13219,0.21285 -0.38169,0.27158 -0.24956,0.0588 -0.4551,-0.0808 -0.20551,-0.13954 -0.26424,-0.38903 -0.044,-0.24956 0.0955,-0.4551 0.13954,-0.20551 0.37437,-0.26424 0.24956,-0.0588 0.45507,0.0808 0.20554,0.13954 0.24957,0.38903 z m 17.41081,13.91692 q 0.0588,0.29359 -0.0955,0.54316 -0.15415,0.24957 -0.44776,0.30828 -0.27892,0.0588 -0.52849,-0.0955 -0.24956,-0.15412 -0.30828,-0.44774 -0.0588,-0.2936 0.0955,-0.54317 0.15414,-0.24957 0.44776,-0.32297 0.2936,-0.0588 0.53582,0.11016 0.24222,0.16883 0.30095,0.44776 z m -9.74771,-13.10951 q 0.2349,0.39637 0.12485,0.8588 -0.11016,0.46243 -0.52115,0.69732 -0.39637,0.23488 -0.84413,0.12471 -0.44774,-0.11016 -0.68263,-0.50646 -0.23487,-0.41105 -0.1247,-0.86615 0.11016,-0.45509 0.50646,-0.70465 0.39637,-0.24957 0.85146,-0.13205 0.4551,0.11736 0.68997,0.52848 z m 10.95149,9.63027 q 0.0588,0.2202 -0.0588,0.40371 -0.11736,0.1835 -0.33763,0.24222 -0.22021,0.044 -0.40372,-0.0808 -0.1835,-0.12485 -0.22754,-0.3303 -0.044,-0.22021 0.0734,-0.41105 0.11748,-0.19085 0.33765,-0.23489 0.20552,-0.044 0.38902,0.0734 0.18352,0.11748 0.22754,0.33766 z m -2.80392,-3.53794 q 0.2202,0.32295 0.15414,0.71934 -0.0661,0.39636 -0.38904,0.63124 -0.32296,0.2202 -0.71933,0.1468 -0.39636,-0.0734 -0.61657,-0.39636 -0.2202,-0.32298 -0.14681,-0.71934 0.0734,-0.39637 0.39637,-0.63125 0.32297,-0.23489 0.712,-0.16148 0.38903,0.0734 0.60924,0.41105 z"
       id="path934" />
  </g>
</svg>
