<?xml version="1.0" encoding="UTF-8" standalone="no"?>
<svg
   xmlns:dc="http://purl.org/dc/elements/1.1/"
   xmlns:cc="http://creativecommons.org/ns#"
   xmlns:rdf="http://www.w3.org/1999/02/22-rdf-syntax-ns#"
   xmlns:svg="http://www.w3.org/2000/svg"
   xmlns="http://www.w3.org/2000/svg"
   xmlns:xlink="http://www.w3.org/1999/xlink"
   xmlns:sodipodi="http://sodipodi.sourceforge.net/DTD/sodipodi-0.dtd"
   xmlns:inkscape="http://www.inkscape.org/namespaces/inkscape"
   version="1.1"
   preserveAspectRatio="xMidYMid meet"
   viewBox="85.336166 8.1584238 534.62376 137.61983"
   width="524.44165"
   height="134.99236"
   id="svg3799"
   sodipodi:docname="logo-with-name--light.svg"
   inkscape:version="0.92.3 (2405546, 2018-03-11)">
  <metadata
     id="metadata3803">
    <rdf:RDF>
      <cc:Work
         rdf:about="">
        <dc:format>image/svg+xml</dc:format>
        <dc:type
           rdf:resource="http://purl.org/dc/dcmitype/StillImage" />
        <dc:title></dc:title>
      </cc:Work>
    </rdf:RDF>
  </metadata>
  <sodipodi:namedview
     pagecolor="#ffffff"
     bordercolor="#666666"
     borderopacity="1"
     objecttolerance="10"
     gridtolerance="10"
     guidetolerance="10"
     inkscape:pageopacity="0"
     inkscape:pageshadow="2"
     inkscape:window-width="1920"
     inkscape:window-height="986"
     id="namedview3801"
     showgrid="false"
     inkscape:zoom="1.3121321"
     inkscape:cx="357.82267"
     inkscape:cy="258.77636"
     inkscape:window-x="-11"
     inkscape:window-y="-11"
     inkscape:window-maximized="1"
     inkscape:current-layer="svg3799" />
  <defs
     id="defs3763">
    <path
       d="m 227.06,87.84 h 0.41 0.4 l 0.4,0.01 h 0.39 0.38 0.38 0.37 0.36 0.35 l 0.34,0.01 h 0.34 0.32 0.32 l 0.3,0.01 h 0.3 0.28 l 0.27,0.01 h 0.26 0.25 l 0.23,0.01 h 0.23 0.2 l 0.2,0.01 h 0.18 l 0.17,0.01 h 0.15 l 0.13,0.01 h 0.12 l 0.11,0.01 h 0.09 l 0.07,0.01 h 0.05 l 1.1,0.13 0.27,81.95 -0.73,4.05 -0.11,0.63 -0.12,0.62 -0.11,0.59 -0.11,0.57 -0.1,0.55 -0.11,0.53 -0.11,0.51 -0.1,0.5 -0.11,0.48 -0.1,0.46 -0.11,0.46 -0.11,0.44 -0.11,0.42 -0.11,0.42 -0.12,0.41 -0.12,0.4 -0.12,0.39 -0.12,0.38 -0.13,0.38 -0.13,0.37 -0.14,0.37 -0.14,0.37 -0.15,0.36 -0.15,0.36 -0.16,0.37 -0.16,0.36 -0.17,0.37 -0.18,0.37 -0.19,0.37 -0.19,0.38 -0.2,0.39 -0.21,0.39 -0.22,0.4 -0.23,0.41 -0.24,0.42 -0.24,0.43 -0.26,0.45 -0.27,0.45 -0.28,0.47 -0.29,0.49 -0.34,0.56 -0.35,0.55 -0.35,0.55 -0.36,0.54 -0.37,0.54 -0.37,0.53 -0.38,0.52 -0.39,0.52 -0.39,0.51 -0.4,0.51 -0.4,0.5 -0.41,0.5 -0.42,0.49 -0.42,0.48 -0.44,0.48 -0.43,0.48 -0.44,0.47 -0.45,0.46 -0.46,0.45 -0.46,0.46 -0.47,0.44 -0.48,0.44 -0.48,0.44 -0.49,0.42 -0.49,0.43 -0.5,0.42 -0.51,0.41 -0.52,0.4 -0.52,0.41 -0.52,0.39 -0.54,0.39 -0.54,0.39 -0.55,0.37 -0.55,0.38 -0.56,0.37 -0.57,0.36 -0.57,0.36 -0.58,0.35 -0.59,0.34 -0.59,0.34 -0.13,0.08 -0.16,0.08 -0.17,0.08 -0.19,0.09 -0.21,0.1 -0.22,0.1 -0.24,0.11 -0.26,0.11 -0.26,0.11 -0.28,0.12 -0.29,0.12 -0.3,0.12 -0.31,0.13 -0.31,0.12 -0.33,0.13 -0.33,0.13 -0.33,0.13 -0.34,0.13 -0.34,0.13 -0.34,0.13 -0.34,0.12 -0.34,0.13 -0.34,0.13 -0.34,0.12 -0.33,0.12 -0.33,0.12 -0.33,0.11 -0.31,0.11 -0.31,0.11 -0.31,0.1 -0.29,0.1 -0.28,0.09 -0.27,0.09 -0.25,0.08 -0.24,0.07 -0.23,0.07 -0.21,0.06 -0.2,0.05 -0.17,0.05 -0.16,0.03 -1.51,0.31 -1.51,0.25 -1.5,0.21 -1.5,0.16 -1.49,0.11 -1.49,0.07 -1.47,0.02 -1.48,-0.03 -1.46,-0.07 -1.45,-0.12 -1.45,-0.16 -1.43,-0.21 -1.42,-0.26 -1.41,-0.3 -1.4,-0.34 -1.39,-0.39 -1.36,-0.43 -1.36,-0.47 -1.34,-0.52 -1.32,-0.55 -1.31,-0.61 -1.28,-0.64 -1.27,-0.68 -1.25,-0.73 -1.23,-0.77 -1.21,-0.8 -1.19,-0.85 -1.16,-0.89 -1.14,-0.92 -1.12,-0.97 -1.1,-1.01 -1.06,-1.04 -1.05,-1.08 -1.01,-1.12 -0.99,-1.16 -0.96,-1.2 -0.93,-1.23 -0.91,-1.27 -0.87,-1.3 -0.84,-1.35 -0.25,-0.42 -0.25,-0.41 -0.24,-0.4 -0.23,-0.4 -0.22,-0.38 -0.21,-0.37 -0.21,-0.37 -0.19,-0.36 -0.19,-0.36 -0.19,-0.35 -0.17,-0.34 -0.18,-0.34 -0.16,-0.34 -0.16,-0.34 -0.15,-0.33 -0.15,-0.33 -0.14,-0.34 -0.14,-0.33 -0.14,-0.34 -0.13,-0.34 -0.12,-0.34 -0.12,-0.34 -0.12,-0.35 -0.12,-0.35 -0.11,-0.36 -0.12,-0.37 -0.11,-0.38 -0.1,-0.38 -0.11,-0.39 -0.1,-0.4 -0.11,-0.41 -0.1,-0.43 -0.1,-0.43 -0.11,-0.45 -0.1,-0.46 -0.1,-0.48 -0.11,-0.49 -0.1,-0.5 -0.11,-0.53 -0.1,-0.53 -0.05,-0.21 -0.03,-0.2 -0.04,-0.19 -0.04,-0.19 -0.03,-0.18 -0.03,-0.17 -0.03,-0.17 -0.03,-0.16 -0.03,-0.16 -0.02,-0.16 -0.03,-0.16 -0.02,-0.16 -0.02,-0.16 -0.02,-0.16 -0.01,-0.16 -0.02,-0.16 -0.02,-0.17 -0.01,-0.18 -0.01,-0.18 -0.01,-0.18 -0.01,-0.2 -0.01,-0.2 -0.01,-0.21 -0.01,-0.22 -0.01,-0.24 v -0.24 l -0.01,-0.26 v -0.27 -0.28 l -0.01,-0.3 v -0.32 -0.33 -0.35 -0.37 -0.38 l -0.01,-0.41 v -0.43 -0.45 l 0.01,-0.48 v -0.5 -6.98 l 11.51,-0.09 11.51,-0.09 0.01,1.63 0.03,1.28 0.1,1.27 0.14,1.25 0.21,1.23 0.26,1.2 0.3,1.19 0.36,1.15 0.41,1.14 0.45,1.1 0.5,1.08 0.55,1.04 0.58,1.02 0.63,0.98 0.66,0.95 0.71,0.91 0.73,0.88 0.77,0.83 0.81,0.81 0.83,0.76 0.87,0.71 0.89,0.68 0.92,0.63 0.94,0.59 0.96,0.54 0.99,0.49 1,0.45 1.02,0.39 1.04,0.34 1.06,0.29 1.06,0.23 1.08,0.18 1.09,0.12 1.1,0.07 h 1.1 l 1.11,-0.05 1.11,-0.12 1.11,-0.18 1.11,-0.25 1.11,-0.31 1.11,-0.38 0.56,-0.22 0.55,-0.23 0.55,-0.25 0.54,-0.27 0.53,-0.29 0.54,-0.3 0.52,-0.31 0.52,-0.33 0.51,-0.35 0.51,-0.36 0.49,-0.37 0.49,-0.39 0.49,-0.4 0.47,-0.42 0.47,-0.43 0.45,-0.44 0.45,-0.45 0.44,-0.46 0.43,-0.48 0.42,-0.48 0.41,-0.5 0.4,-0.51 0.39,-0.52 0.38,-0.52 0.37,-0.54 0.35,-0.55 0.34,-0.55 0.34,-0.56 0.32,-0.57 0.3,-0.58 0.3,-0.59 0.28,-0.59 0.26,-0.6 0.26,-0.61 0.23,-0.61 0.23,-0.62 0.21,-0.62 0.19,-0.63 0.18,-0.63 0.17,-0.64 0.02,-0.09 0.02,-0.11 0.02,-0.13 0.02,-0.14 0.02,-0.17 0.02,-0.19 0.01,-0.21 0.02,-0.24 0.01,-0.28 0.01,-0.3 0.02,-0.35 0.01,-0.38 0.01,-0.42 0.01,-0.47 0.01,-0.52 0.01,-0.56 0.01,-0.62 v -0.67 l 0.01,-0.73 0.01,-0.79 v -0.85 l 0.01,-0.91 v -0.99 -1.05 l 0.01,-1.13 v -1.2 -1.28 -1.37 -1.44 -1.53 -1.62 -1.71 -1.81 -1.9 l -0.01,-2 v -2.1 -2.21 l -0.01,-2.31 v -2.43 -2.53 l -0.07,-38.39 10.67,-0.03 h 0.44 l 0.44,-0.01 h 0.43 0.43 0.43 0.42 0.42 z"
       id="b22WeHWbVv"
       inkscape:connector-curvature="0" />
    <path
       d="m 252.57,65.92 0.61,0.12 0.59,0.11 0.57,0.11 0.55,0.11 0.53,0.11 0.51,0.1 0.5,0.11 0.48,0.11 0.46,0.11 0.45,0.11 0.44,0.11 0.43,0.11 0.42,0.11 0.4,0.12 0.4,0.12 0.39,0.12 0.39,0.13 0.37,0.13 0.38,0.13 0.36,0.14 0.37,0.14 0.36,0.15 0.37,0.15 0.36,0.16 0.36,0.17 0.37,0.17 0.37,0.18 0.37,0.18 0.38,0.2 0.39,0.2 0.39,0.21 0.4,0.22 0.41,0.23 0.42,0.24 0.43,0.25 0.44,0.26 0.45,0.27 0.47,0.28 0.49,0.29 0.56,0.35 0.55,0.35 0.54,0.35 0.55,0.36 0.53,0.37 0.53,0.38 0.52,0.38 0.52,0.38 0.51,0.4 0.51,0.4 0.5,0.4 0.49,0.42 0.49,0.42 0.49,0.42 0.48,0.43 0.47,0.44 0.46,0.45 0.47,0.45 0.45,0.46 0.45,0.46 0.44,0.47 0.44,0.48 0.44,0.48 0.42,0.49 0.42,0.5 0.42,0.5 0.41,0.51 0.41,0.51 0.39,0.53 0.4,0.52 0.39,0.54 0.38,0.54 0.38,0.55 0.37,0.55 0.36,0.57 0.37,0.56 0.35,0.58 0.35,0.58 0.34,0.59 0.34,0.59 0.08,0.14 0.08,0.15 0.08,0.17 0.09,0.19 0.1,0.21 0.1,0.23 0.1,0.24 0.11,0.25 0.11,0.27 0.12,0.28 0.12,0.29 0.12,0.3 0.12,0.3 0.13,0.32 0.13,0.32 0.12,0.33 0.13,0.34 0.13,0.34 0.13,0.34 0.13,0.34 0.12,0.34 0.13,0.34 0.12,0.34 0.13,0.34 0.12,0.34 0.11,0.33 0.12,0.32 0.11,0.32 0.1,0.31 0.1,0.3 0.1,0.29 0.09,0.28 0.09,0.27 0.07,0.26 0.08,0.24 0.06,0.23 0.06,0.21 0.06,0.19 0.04,0.18 0.04,0.15 0.3,1.52 0.25,1.5 0.2,1.51 0.15,1.5 0.11,1.49 0.06,1.48 0.02,1.48 -0.03,1.48 -0.08,1.46 -0.13,1.45 -0.17,1.45 -0.21,1.43 -0.26,1.42 -0.3,1.41 -0.35,1.4 -0.39,1.38 -0.44,1.37 -0.47,1.35 -0.52,1.34 -0.57,1.32 -0.6,1.3 -0.65,1.29 -0.69,1.26 -0.73,1.25 -0.77,1.23 -0.81,1.2 -0.85,1.19 -0.89,1.16 -0.93,1.14 -0.97,1.11 -1.01,1.09 -1.05,1.07 -1.09,1.04 -1.12,1.01 -1.16,0.98 -1.2,0.96 -1.24,0.93 -1.27,0.9 -1.31,0.86 -1.34,0.84 -0.43,0.25 -0.41,0.25 -0.4,0.24 -0.39,0.22 -0.39,0.22 -0.37,0.21 -0.37,0.21 -0.36,0.19 -0.36,0.19 -0.35,0.19 -0.34,0.17 -0.35,0.17 -0.33,0.16 -0.34,0.16 -0.34,0.15 -0.33,0.15 -0.33,0.14 -0.34,0.14 -0.33,0.13 -0.34,0.13 -0.34,0.13 -0.35,0.12 -0.35,0.12 -0.35,0.11 -0.36,0.12 -0.37,0.11 -0.38,0.1 -0.38,0.11 -0.39,0.11 -0.4,0.1 -0.42,0.1 -0.42,0.1 -0.43,0.1 -0.45,0.11 -0.46,0.1 -0.48,0.1 -0.49,0.1 -0.51,0.1 -0.52,0.11 -0.54,0.1 -0.21,0.04 -0.2,0.04 -0.19,0.04 -0.18,0.03 -0.18,0.04 -0.17,0.03 -0.17,0.03 -0.17,0.03 -0.16,0.02 -0.16,0.03 -0.16,0.02 -0.15,0.02 -0.16,0.02 -0.16,0.02 -0.17,0.02 -0.16,0.01 -0.17,0.02 -0.17,0.01 -0.18,0.01 -0.19,0.01 -0.19,0.01 -0.21,0.01 -0.21,0.01 h -0.22 l -0.23,0.01 -0.25,0.01 h -0.25 -0.27 l -0.29,0.01 h -0.3 -0.31 -0.33 -0.35 -0.37 -0.39 -0.41 -0.43 l -0.45,-0.01 h -0.48 -0.49 l -6.98,-0.03 -0.06,-11.51 -0.05,-11.51 h 1.63 l 1.28,-0.03 1.27,-0.09 1.25,-0.14 1.23,-0.2 1.21,-0.26 1.18,-0.3 1.16,-0.36 1.13,-0.4 1.11,-0.45 1.07,-0.5 1.05,-0.54 1.02,-0.58 0.98,-0.62 0.95,-0.66 0.92,-0.7 0.88,-0.74 0.84,-0.76 0.8,-0.81 0.77,-0.83 0.72,-0.86 0.68,-0.89 0.63,-0.91 0.59,-0.94 0.55,-0.97 0.49,-0.98 0.45,-1 0.39,-1.02 0.35,-1.04 0.29,-1.05 0.24,-1.07 0.18,-1.08 0.13,-1.09 0.06,-1.09 0.01,-1.1 -0.05,-1.11 -0.12,-1.11 -0.17,-1.12 -0.25,-1.11 -0.3,-1.11 -0.38,-1.11 -0.21,-0.56 -0.24,-0.55 -0.25,-0.55 -0.26,-0.54 -0.29,-0.54 -0.29,-0.53 -0.32,-0.53 -0.33,-0.52 -0.34,-0.51 -0.36,-0.5 -0.37,-0.5 -0.39,-0.5 -0.4,-0.48 -0.41,-0.48 -0.43,-0.46 -0.44,-0.46 -0.45,-0.45 -0.46,-0.44 -0.47,-0.43 -0.49,-0.43 -0.49,-0.41 -0.51,-0.4 -0.52,-0.39 -0.52,-0.38 -0.54,-0.37 -0.54,-0.36 -0.56,-0.34 -0.56,-0.33 -0.57,-0.33 -0.58,-0.3 -0.58,-0.3 -0.59,-0.28 -0.6,-0.27 -0.61,-0.26 -0.61,-0.24 -0.61,-0.22 -0.63,-0.21 -0.62,-0.2 -0.64,-0.18 -0.63,-0.17 -0.1,-0.02 -0.11,-0.02 -0.12,-0.02 -0.15,-0.02 -0.16,-0.02 -0.19,-0.02 -0.21,-0.02 -0.25,-0.01 -0.27,-0.02 -0.31,-0.01 -0.34,-0.02 -0.38,-0.01 -0.43,-0.01 -0.47,-0.01 -0.51,-0.02 -0.57,-0.01 -0.61,-0.01 -0.67,-0.01 h -0.73 l -0.79,-0.01 -0.85,-0.01 -0.92,-0.01 -0.98,-0.01 h -1.06 l -1.12,-0.01 -1.21,-0.01 h -1.28 l -1.36,-0.01 h -1.44 l -1.54,-0.01 h -1.62 l -1.71,-0.01 h -1.8 l -1.9,-0.01 h -2.01 -2.1 l -2.2,-0.01 h -2.32 l -2.42,-0.01 h -2.54 L 165.67,88.6 V 77.92 77.49 77.05 76.62 76.18 75.76 75.34 74.92 l 0.01,-0.42 V 74.1 73.69 73.3 72.91 l 0.01,-0.39 v -0.37 -0.37 l 0.01,-0.36 v -0.35 -0.35 l 0.01,-0.33 v -0.32 -0.32 l 0.01,-0.3 v -0.3 -0.28 l 0.01,-0.27 v -0.26 l 0.01,-0.25 v -0.24 l 0.01,-0.22 v -0.21 l 0.01,-0.19 v -0.18 l 0.01,-0.17 v -0.15 l 0.01,-0.13 v -0.13 l 0.01,-0.1 v -0.09 l 0.01,-0.07 v -0.05 l 0.13,-1.1 h 81.95 l 4.05,0.74 z"
       id="b2aaA8IxrE"
       inkscape:connector-curvature="0" />
    <path
       d="m 192.12,9.26 1.46,0.12 1.44,0.16 1.43,0.21 1.43,0.26 1.41,0.29 1.39,0.35 1.39,0.38 1.37,0.43 1.35,0.48 1.34,0.51 1.32,0.56 1.31,0.6 1.29,0.65 1.26,0.68 1.25,0.73 1.23,0.76 1.21,0.81 1.19,0.85 1.16,0.89 1.15,0.92 1.11,0.97 1.1,1 1.07,1.05 1.04,1.08 1.01,1.12 0.99,1.16 0.96,1.2 0.94,1.23 0.9,1.27 0.87,1.3 0.84,1.34 0.26,0.43 0.24,0.41 0.24,0.4 0.23,0.39 0.22,0.39 0.21,0.37 0.21,0.37 0.2,0.36 0.19,0.36 0.18,0.34 0.18,0.35 0.17,0.34 0.16,0.34 0.16,0.33 0.15,0.34 0.15,0.33 0.15,0.34 0.13,0.33 0.14,0.34 0.13,0.33 0.12,0.34 0.13,0.35 0.12,0.35 0.11,0.35 0.12,0.36 0.11,0.37 0.11,0.37 0.1,0.39 0.11,0.39 0.11,0.4 0.1,0.41 0.1,0.43 0.11,0.43 0.1,0.45 0.1,0.46 0.1,0.47 0.11,0.5 0.1,0.5 0.11,0.52 0.11,0.54 0.04,0.21 0.04,0.2 0.03,0.19 0.04,0.19 0.03,0.18 0.03,0.17 0.03,0.17 0.03,0.16 0.03,0.16 0.02,0.16 0.03,0.16 0.02,0.16 0.02,0.16 0.02,0.16 0.02,0.16 0.01,0.16 0.02,0.17 0.01,0.18 0.01,0.18 0.02,0.18 0.01,0.2 0.01,0.2 v 0.21 l 0.01,0.22 0.01,0.23 v 0.25 l 0.01,0.25 v 0.27 l 0.01,0.29 v 0.3 0.31 0.34 l 0.01,0.35 v 0.37 0.38 0.41 0.43 0.45 0.48 0.5 l -0.01,6.98 -11.51,0.09 -11.51,0.09 -0.01,-1.63 -0.03,-1.29 -0.09,-1.26 -0.15,-1.25 -0.21,-1.23 -0.25,-1.21 -0.31,-1.18 -0.36,-1.16 -0.41,-1.13 -0.45,-1.1 -0.5,-1.08 -0.55,-1.04 -0.58,-1.02 -0.63,-0.98 -0.66,-0.95 -0.7,-0.91 -0.74,-0.88 -0.77,-0.84 -0.81,-0.8 -0.83,-0.76 -0.86,-0.72 -0.9,-0.67 -0.91,-0.63 -0.95,-0.59 -0.96,-0.54 -0.98,-0.49 -1.01,-0.45 -1.02,-0.39 -1.04,-0.34 -1.05,-0.29 -1.07,-0.24 -1.08,-0.17 -1.09,-0.13 -1.09,-0.06 h -1.11 l -1.1,0.05 -1.11,0.12 -1.12,0.18 -1.11,0.25 -1.11,0.31 -1.11,0.38 -0.55,0.22 -0.56,0.23 -0.54,0.25 -0.55,0.27 -0.53,0.29 -0.53,0.3 -0.53,0.31 -0.52,0.33 -0.51,0.35 -0.5,0.36 -0.5,0.37 -0.49,0.39 -0.48,0.4 -0.48,0.42 -0.46,0.42 -0.46,0.44 -0.45,0.46 -0.44,0.46 -0.43,0.48 -0.42,0.48 -0.41,0.5 -0.4,0.51 -0.39,0.51 -0.38,0.53 -0.36,0.54 -0.36,0.54 -0.34,0.56 -0.33,0.56 -0.32,0.57 -0.31,0.58 -0.29,0.59 -0.28,0.59 -0.27,0.6 -0.25,0.61 -0.24,0.61 -0.23,0.61 -0.21,0.63 -0.19,0.63 -0.18,0.63 -0.17,0.63 -0.02,0.1 -0.02,0.11 -0.02,0.13 -0.02,0.14 -0.02,0.17 -0.01,0.18 -0.02,0.22 -0.01,0.24 -0.02,0.27 -0.01,0.31 -0.02,0.34 -0.01,0.39 -0.01,0.42 -0.01,0.47 -0.01,0.52 -0.01,0.56 v 0.62 l -0.01,0.67 -0.01,0.73 v 0.79 l -0.01,0.85 v 0.91 l -0.01,0.99 v 1.05 1.13 l -0.01,1.2 v 1.28 1.36 1.45 1.53 1.62 1.71 1.81 l 0.01,1.9 v 2 2.1 2.21 l 0.01,2.31 v 2.43 l 0.01,2.53 0.06,38.39 -10.67,0.03 h -0.44 -0.44 -0.43 -0.43 l -0.43,0.01 h -0.42 -0.42 -0.41 l -0.41,-0.01 h -0.4 -0.4 -0.39 -0.38 -0.38 -0.37 -0.36 l -0.35,-0.01 h -0.34 -0.34 -0.32 l -0.32,-0.01 h -0.3 -0.29 -0.29 l -0.27,-0.01 h -0.26 -0.25 l -0.23,-0.01 h -0.22 l -0.21,-0.01 h -0.2 -0.18 L 144.18,136 h -0.16 l -0.13,-0.01 h -0.12 l -0.11,-0.01 h -0.08 l -0.08,-0.01 h -0.05 l -1.09,-0.13 -0.28,-81.95 0.73,-4.05 0.12,-0.63 0.11,-0.62 0.11,-0.59 0.11,-0.57 0.11,-0.55 0.1,-0.53 0.11,-0.51 0.1,-0.5 0.11,-0.48 0.11,-0.47 0.1,-0.45 0.11,-0.44 0.11,-0.42 0.12,-0.42 0.11,-0.41 0.12,-0.4 0.12,-0.39 0.12,-0.38 0.13,-0.38 0.13,-0.37 0.14,-0.37 0.14,-0.37 0.15,-0.36 0.15,-0.37 0.16,-0.36 0.16,-0.37 0.18,-0.36 0.17,-0.37 0.19,-0.38 0.19,-0.38 0.2,-0.38 0.21,-0.39 0.22,-0.4 0.23,-0.41 0.24,-0.42 0.25,-0.43 0.25,-0.45 0.27,-0.45 0.28,-0.47 0.29,-0.49 0.34,-0.56 0.35,-0.55 0.36,-0.55 0.36,-0.54 0.36,-0.54 0.37,-0.53 0.38,-0.52 0.39,-0.52 0.39,-0.51 0.4,-0.51 0.4,-0.5 0.42,-0.5 0.41,-0.49 0.43,-0.49 0.43,-0.48 0.43,-0.47 0.45,-0.47 0.45,-0.46 0.45,-0.46 0.46,-0.45 0.47,-0.44 0.48,-0.44 0.48,-0.44 0.49,-0.43 0.49,-0.42 0.51,-0.42 0.5,-0.41 0.52,-0.41 0.52,-0.4 0.53,-0.39 0.53,-0.39 0.54,-0.39 0.55,-0.38 0.55,-0.37 0.56,-0.37 0.57,-0.36 0.57,-0.36 0.58,-0.35 0.59,-0.35 0.59,-0.34 0.14,-0.07 0.15,-0.08 0.17,-0.08 0.19,-0.1 0.21,-0.09 0.23,-0.1 0.23,-0.11 0.26,-0.11 0.26,-0.11 0.28,-0.12 0.29,-0.12 0.3,-0.12 0.31,-0.13 0.32,-0.12 0.32,-0.13 0.33,-0.13 0.33,-0.13 0.34,-0.13 0.34,-0.13 0.34,-0.13 0.34,-0.13 0.34,-0.12 0.34,-0.13 0.34,-0.12 0.34,-0.12 0.33,-0.12 0.32,-0.11 0.32,-0.11 0.31,-0.11 0.3,-0.1 0.29,-0.1 0.28,-0.09 0.27,-0.09 0.25,-0.08 0.25,-0.07 0.22,-0.07 0.21,-0.06 0.2,-0.05 0.17,-0.05 0.16,-0.03 1.51,-0.31 1.51,-0.25 1.5,-0.21 1.5,-0.16 1.49,-0.12 1.49,-0.06 1.48,-0.02 1.47,0.03 z"
       id="camVa6HLh"
       inkscape:connector-curvature="0" />
    <path
       d="m 133.16,65.06 0.4,0.01 h 0.43 0.46 0.47 0.5 l 6.98,0.03 0.05,11.51 0.06,11.51 h -1.63 l -1.29,0.03 -1.27,0.09 -1.25,0.15 -1.23,0.2 -1.2,0.25 -1.19,0.3 -1.15,0.36 -1.14,0.4 -1.1,0.45 -1.08,0.5 -1.05,0.54 -1.01,0.58 -0.99,0.62 -0.95,0.67 -0.91,0.7 -0.88,0.73 -0.85,0.77 -0.8,0.8 -0.76,0.83 -0.72,0.86 -0.68,0.89 -0.64,0.92 -0.59,0.94 -0.54,0.96 -0.5,0.98 -0.44,1.01 -0.4,1.02 -0.35,1.04 -0.29,1.05 -0.23,1.06 -0.19,1.08 -0.12,1.09 -0.07,1.09 -0.01,1.11 0.06,1.11 0.11,1.11 0.18,1.11 0.24,1.11 0.31,1.11 0.37,1.11 0.22,0.56 0.23,0.55 0.25,0.55 0.27,0.55 0.28,0.53 0.3,0.53 0.31,0.53 0.33,0.52 0.35,0.51 0.35,0.51 0.38,0.5 0.38,0.49 0.4,0.48 0.42,0.48 0.42,0.47 0.44,0.46 0.45,0.45 0.46,0.44 0.48,0.43 0.48,0.42 0.5,0.41 0.5,0.4 0.52,0.39 0.53,0.38 0.53,0.37 0.55,0.36 0.55,0.34 0.56,0.34 0.57,0.32 0.58,0.31 0.58,0.29 0.6,0.29 0.6,0.26 0.6,0.26 0.61,0.24 0.62,0.23 0.62,0.21 0.63,0.2 0.63,0.18 0.64,0.16 0.09,0.03 0.11,0.02 0.13,0.02 0.14,0.02 0.17,0.02 0.19,0.01 0.21,0.02 0.24,0.02 0.27,0.01 0.31,0.02 0.35,0.01 0.38,0.01 0.42,0.02 0.47,0.01 0.52,0.01 0.56,0.01 0.62,0.01 0.67,0.01 0.73,0.01 0.79,0.01 0.85,0.01 h 0.91 l 0.99,0.01 1.05,0.01 h 1.13 l 1.2,0.01 h 1.28 l 1.36,0.01 1.45,0.01 h 1.53 l 1.62,0.01 h 1.71 1.81 l 1.9,0.01 h 2 l 2.1,0.01 h 2.21 l 2.31,0.01 h 2.43 2.53 l 38.39,0.07 v 10.67 0.44 l -0.01,0.43 v 0.44 0.43 0.43 0.42 0.42 0.41 0.41 l -0.01,0.4 v 0.4 0.39 0.38 l -0.01,0.38 v 0.36 0.36 0.36 l -0.01,0.34 v 0.33 0.33 l -0.01,0.31 v 0.31 l -0.01,0.29 v 0.29 0.27 l -0.01,0.26 v 0.24 l -0.01,0.24 v 0.22 l -0.01,0.21 v 0.19 l -0.01,0.19 v 0.16 l -0.01,0.15 v 0.14 l -0.01,0.12 v 0.1 l -0.01,0.09 v 0.07 l -0.01,0.06 -0.13,1.09 h -81.95 l -4.05,-0.74 -0.63,-0.12 -0.61,-0.11 -0.59,-0.11 -0.57,-0.11 -0.55,-0.11 -0.53,-0.11 -0.52,-0.11 -0.49,-0.11 -0.48,-0.11 -0.47,-0.1 -0.45,-0.11 -0.44,-0.11 -0.43,-0.12 -0.41,-0.11 -0.41,-0.12 -0.4,-0.11 -0.39,-0.13 -0.38,-0.12 -0.38,-0.13 -0.37,-0.13 -0.37,-0.14 -0.37,-0.15 -0.36,-0.14 -0.36,-0.16 -0.37,-0.16 -0.36,-0.16 -0.37,-0.17 -0.37,-0.18 -0.37,-0.19 -0.38,-0.2 -0.38,-0.2 -0.4,-0.21 -0.4,-0.22 -0.4,-0.23 -0.42,-0.24 -0.43,-0.25 -0.45,-0.26 -0.45,-0.27 -0.47,-0.28 -0.48,-0.29 -0.56,-0.34 -0.55,-0.35 -0.55,-0.36 -0.54,-0.36 -0.54,-0.37 -0.53,-0.37 -0.52,-0.38 -0.52,-0.39 -0.51,-0.39 -0.51,-0.4 -0.5,-0.41 -0.49,-0.41 -0.49,-0.42 -0.48,-0.43 -0.48,-0.43 -0.47,-0.44 -0.47,-0.44 -0.46,-0.45 -0.46,-0.46 -0.45,-0.47 -0.44,-0.47 -0.44,-0.47 -0.43,-0.49 -0.43,-0.49 -0.42,-0.49 -0.42,-0.5 -0.41,-0.51 -0.4,-0.52 -0.4,-0.52 -0.39,-0.53 -0.39,-0.54 -0.39,-0.54 -0.37,-0.55 -0.37,-0.55 -0.37,-0.56 -0.36,-0.57 -0.36,-0.58 -0.35,-0.58 -0.34,-0.58 -0.34,-0.6 -0.07,-0.13 -0.08,-0.16 -0.09,-0.17 -0.09,-0.19 -0.09,-0.21 -0.1,-0.22 -0.11,-0.24 -0.11,-0.26 -0.11,-0.26 -0.12,-0.28 -0.11,-0.29 -0.13,-0.3 -0.12,-0.31 -0.13,-0.32 -0.12,-0.32 -0.13,-0.33 -0.13,-0.33 -0.13,-0.34 -0.13,-0.34 -0.12,-0.34 -0.13,-0.35 -0.13,-0.34 -0.12,-0.34 -0.12,-0.34 -0.12,-0.33 -0.12,-0.33 -0.11,-0.33 -0.11,-0.31 -0.11,-0.31 -0.1,-0.31 -0.09,-0.29 -0.1,-0.28 -0.08,-0.27 -0.08,-0.25 -0.07,-0.24 -0.07,-0.23 -0.06,-0.21 -0.05,-0.2 -0.05,-0.17 -0.03,-0.16 -0.3,-1.51 -0.25,-1.51 -0.21,-1.5 -0.15,-1.5 -0.11,-1.49 -0.06,-1.49 -0.01,-1.48 0.03,-1.47 0.08,-1.46 0.12,-1.46 0.17,-1.44 0.21,-1.43 0.26,-1.43 0.31,-1.41 0.34,-1.39 0.39,-1.38 0.44,-1.37 0.48,-1.36 0.52,-1.33 0.56,-1.32 0.61,-1.31 0.64,-1.28 0.69,-1.27 0.73,-1.25 0.77,-1.22 0.81,-1.21 0.86,-1.18 0.89,-1.16 0.93,-1.14 0.97,-1.12 1.01,-1.09 1.04,-1.06 1.09,-1.04 1.12,-1.01 1.17,-0.99 1.19,-0.96 1.24,-0.92 1.27,-0.9 1.31,-0.87 1.35,-0.84 0.42,-0.25 0.41,-0.24 0.41,-0.24 0.39,-0.23 0.38,-0.22 0.38,-0.21 0.37,-0.2 0.36,-0.2 0.35,-0.19 0.35,-0.18 0.35,-0.18 0.34,-0.17 0.34,-0.16 0.33,-0.16 0.34,-0.15 0.33,-0.15 0.34,-0.14 0.33,-0.14 0.34,-0.13 0.34,-0.13 0.34,-0.12 0.34,-0.13 0.35,-0.11 0.36,-0.12 0.36,-0.11 0.37,-0.11 0.37,-0.11 0.38,-0.11 0.4,-0.1 0.4,-0.1 0.41,-0.11 0.42,-0.1 0.44,-0.1 0.45,-0.1 0.46,-0.1 0.47,-0.1 0.49,-0.11 0.51,-0.1 0.52,-0.1 0.54,-0.11 0.21,-0.04 0.2,-0.04 0.19,-0.04 0.19,-0.03 0.18,-0.03 0.17,-0.03 0.17,-0.03 0.16,-0.03 0.16,-0.03 0.16,-0.02 0.16,-0.02 0.16,-0.03 0.16,-0.02 0.16,-0.01 0.16,-0.02 0.16,-0.02 0.17,-0.01 0.18,-0.01 0.18,-0.02 0.18,-0.01 0.2,-0.01 0.2,-0.01 h 0.21 l 0.22,-0.01 0.24,-0.01 h 0.24 l 0.26,-0.01 h 0.27 0.28 0.3 l 0.32,-0.01 h 0.33 0.35 0.37 z"
       id="edZBu33Lq"
       inkscape:connector-curvature="0" />
  </defs>
  <g
     id="g3797"
     transform="matrix(0.562022,0.5601033,-0.562022,0.5601033,110.60049,-91.793586)">
    <g
       id="g3771">
      <use
         xlink:href="#b22WeHWbVv"
         id="use3765"
         style="opacity:1;fill:#14cdd7;fill-opacity:1"
         x="0"
         y="0"
         width="100%"
         height="100%" />
      <g
         id="g3769">
        <use
           xlink:href="#b22WeHWbVv"
           id="use3767"
           style="opacity:1;fill-opacity:0;stroke:#000000;stroke-width:1;stroke-opacity:0"
           x="0"
           y="0"
           width="100%"
           height="100%" />
      </g>
    </g>
    <g
       id="g3779">
      <use
         xlink:href="#b2aaA8IxrE"
         id="use3773"
         style="opacity:1;fill:#125b79;fill-opacity:1"
         x="0"
         y="0"
         width="100%"
         height="100%" />
      <g
         id="g3777">
        <use
           xlink:href="#b2aaA8IxrE"
           id="use3775"
           style="opacity:1;fill-opacity:0;stroke:#000000;stroke-width:1;stroke-opacity:0"
           x="0"
           y="0"
           width="100%"
           height="100%" />
      </g>
    </g>
    <g
       id="g3787">
      <use
         xlink:href="#camVa6HLh"
         id="use3781"
         style="opacity:1;fill:#14cdd7;fill-opacity:1"
         x="0"
         y="0"
         width="100%"
         height="100%" />
      <g
         id="g3785">
        <use
           xlink:href="#camVa6HLh"
           id="use3783"
           style="opacity:1;fill-opacity:0;stroke:#000000;stroke-width:1;stroke-opacity:0"
           x="0"
           y="0"
           width="100%"
           height="100%" />
      </g>
    </g>
    <g
       id="g3795">
      <use
         xlink:href="#edZBu33Lq"
         id="use3789"
         style="opacity:1;fill:#125b79;fill-opacity:1"
         x="0"
         y="0"
         width="100%"
         height="100%" />
      <g
         id="g3793">
        <use
           xlink:href="#edZBu33Lq"
           id="use3791"
           style="opacity:1;fill-opacity:0;stroke:#000000;stroke-width:1;stroke-opacity:0"
           x="0"
           y="0"
           width="100%"
           height="100%" />
      </g>
    </g>
  </g>
  <text
     xml:space="preserve"
     style="font-style:normal;font-weight:normal;font-size:40.77855682px;line-height:1.25;font-family:sans-serif;letter-spacing:0px;word-spacing:0px;fill:#14cdd7;fill-opacity:1;stroke:none;stroke-width:1.0194639"
     x="255.021"
     y="91.883507"
     id="text3807"><tspan
       sodipodi:role="line"
       id="tspan3805"
       x="255.021"
       y="91.883507"
       style="font-style:normal;font-variant:normal;font-weight:normal;font-stretch:normal;font-size:76.11997223px;font-family:Minimo;-inkscape-font-specification:Minimo;fill:#14cdd7;fill-opacity:1;stroke-width:1.0194639">devconnect</tspan></text>
</svg>
